<svg height='300px' width='300px'  fill="#000000" xmlns="http://www.w3.org/2000/svg" xmlns:xlink="http://www.w3.org/1999/xlink" version="1.1" x="0px" y="0px" viewBox="0 0 512 512" style="enable-background:new 0 0 512 512;" xml:space="preserve"><g><g><g><path d="M131,246c-63.411,0-115-51.589-115-115S67.589,16,131,16s115,51.589,115,115S194.411,246,131,246z M131,36     c-52.383,0-95,42.617-95,95s42.617,95,95,95s95-42.617,95-95S183.383,36,131,36z"></path></g><g><path d="M381,246c-63.411,0-115-51.589-115-115S317.589,16,381,16s115,51.589,115,115S444.411,246,381,246z M381,36     c-52.383,0-95,42.617-95,95s42.617,95,95,95s95-42.617,95-95S433.383,36,381,36z"></path></g><g><path d="M131,496c-63.411,0-115-51.589-115-115s51.589-115,115-115s115,51.589,115,115S194.411,496,131,496z M131,286     c-52.383,0-95,42.617-95,95s42.617,95,95,95s95-42.617,95-95S183.383,286,131,286z"></path></g><g><path d="M381,496c-63.411,0-115-51.589-115-115s51.589-115,115-115s115,51.589,115,115S444.411,496,381,496z M381,286     c-52.383,0-95,42.617-95,95s42.617,95,95,95s95-42.617,95-95S433.383,286,381,286z"></path></g><g><path d="M98,186c-0.449,0-0.901-0.03-1.353-0.092c-3.136-0.428-5.884-2.315-7.41-5.089l-22-40     c-2.662-4.839-0.896-10.92,3.943-13.582c4.839-2.662,10.92-0.896,13.582,3.943l15.507,28.195l78.581-80.367     c3.861-3.949,10.193-4.02,14.141-0.159c3.949,3.861,4.02,10.192,0.159,14.141l-88,90C103.256,184.928,100.672,186,98,186z"></path></g><g><path d="M348.001,436c-0.45,0-0.901-0.03-1.354-0.092c-3.136-0.428-5.884-2.315-7.409-5.089l-22-40     c-2.662-4.84-0.896-10.92,3.942-13.581c4.838-2.662,10.92-0.896,13.581,3.942l15.508,28.194l78.58-80.366     c3.861-3.948,10.193-4.021,14.142-0.159c3.949,3.861,4.02,10.192,0.159,14.142l-88,90C353.256,434.929,350.672,436,348.001,436z"></path></g><g><path d="M86,436c-2.559,0-5.119-0.977-7.071-2.929c-3.905-3.905-3.905-10.237,0-14.143l90-90c3.905-3.904,10.237-3.904,14.143,0     c3.905,3.905,3.905,10.237,0,14.143l-90,90C91.119,435.023,88.559,436,86,436z"></path></g><g><path d="M176,436c-2.559,0-5.119-0.977-7.071-2.929l-90-90c-3.905-3.905-3.905-10.237,0-14.143     c3.905-3.904,10.237-3.904,14.143,0l90,90c3.905,3.905,3.905,10.237,0,14.143C181.119,435.023,178.559,436,176,436z"></path></g><g><path d="M336,186c-2.56,0-5.118-0.976-7.071-2.929c-3.905-3.905-3.905-10.237,0-14.143l90-90c3.906-3.905,10.236-3.905,14.143,0     c3.905,3.905,3.905,10.237,0,14.143l-90,90C341.118,185.024,338.56,186,336,186z"></path></g><g><path d="M426,186c-2.56,0-5.118-0.976-7.071-2.929l-90-90c-3.905-3.905-3.905-10.237,0-14.143c3.906-3.905,10.236-3.905,14.143,0     l90,90c3.905,3.905,3.905,10.237,0,14.143C431.118,185.024,428.56,186,426,186z"></path></g></g></g></svg>